<?xml version="1.0" standalone="no"?><!DOCTYPE svg PUBLIC "-//W3C//DTD SVG 1.1//EN" "http://www.w3.org/Graphics/SVG/1.1/DTD/svg11.dtd"><svg t="1678254995858" class="icon" viewBox="0 0 1024 1024" version="1.1" xmlns="http://www.w3.org/2000/svg" p-id="3921" xmlns:xlink="http://www.w3.org/1999/xlink" width="200" height="200"><path d="M962.133333 755.2c-34.133333-117.333333-83.2-288-147.2-512 8.533333-8.533333 12.8-21.333333 12.8-34.133333 0-27.733333-21.333333-49.066667-49.066666-49.066667s-49.066667 23.466667-49.066667 49.066667c0 10.666667 4.266667 21.333333 10.666667 29.866666l-219.733334 183.466667L298.666667 234.666667c4.266667-6.4 6.4-14.933333 6.4-23.466667 0-27.733333-21.333333-49.066667-49.066667-49.066667s-49.066667 21.333333-49.066667 46.933334c0 14.933333 6.4 29.866667 17.066667 38.4C157.866667 469.333333 108.8 637.866667 72.533333 755.2c-23.466667 4.266667-40.533333 23.466667-40.533333 49.066667 0 27.733333 21.333333 49.066667 49.066667 49.066666s49.066667-23.466667 49.066666-49.066666c0-8.533333-2.133333-17.066667-6.4-23.466667l262.4-217.6c40.533333 91.733333 70.4 164.266667 91.733334 213.333333-6.4 8.533333-8.533333 19.2-8.533334 29.866667 0 27.733333 21.333333 49.066667 49.066667 49.066667s49.066667-23.466667 49.066667-49.066667c0-12.8-4.266667-25.6-12.8-34.133333 21.333333-49.066667 53.333333-119.466667 91.733333-211.2l262.4 224c-2.133333 6.4-4.266667 12.8-4.266667 19.2 0 27.733333 21.333333 49.066667 49.066667 49.066666s49.066667-21.333333 49.066667-49.066666c0-25.6-17.066667-44.8-40.533334-49.066667zM778.666667 181.333333c14.933333 0 27.733333 12.8 27.733333 27.733334 0 14.933333-12.8 27.733333-27.733333 27.733333s-27.733333-12.8-27.733334-27.733333c0-14.933333 12.8-27.733333 27.733334-27.733334zM256 181.333333c14.933333 0 27.733333 12.8 27.733333 27.733334 0 14.933333-12.8 27.733333-27.733333 27.733333-14.933333 0-27.733333-12.8-27.733333-27.733333 0-14.933333 12.8-27.733333 27.733333-27.733334zM81.066667 834.133333c-14.933333 0-27.733333-12.8-27.733334-27.733333s12.8-27.733333 27.733334-27.733333c14.933333 0 27.733333 12.8 27.733333 27.733333s-12.8 27.733333-27.733333 27.733333z m34.133333-72.533333l147.2-488.533333 115.2 268.8L115.2 761.6z m192-492.8l196.266667 168.533333-91.733334 76.8-104.533333-245.333333z m211.2 565.333333c-14.933333 0-27.733333-12.8-27.733333-27.733333s12.8-27.733333 27.733333-27.733333c14.933333 0 27.733333 12.8 27.733333 27.733333s-12.8 27.733333-27.733333 27.733333z m-4.266667-81.066666L420.266667 533.333333l98.133333-83.2 91.733333 78.933334-96 224z m106.666667-243.2l-85.333333-72.533334 185.6-153.6-100.266667 226.133334z m155.733333-245.333334L921.6 768 654.933333 539.733333l121.6-275.2z m177.066667 569.6c-14.933333 0-27.733333-12.8-27.733333-27.733333s12.8-27.733333 27.733333-27.733333 27.733333 10.666667 27.733333 25.6-12.8 29.866667-27.733333 29.866666z" p-id="3922"></path></svg>